<?xml version="1.0" standalone="no"?>
<!DOCTYPE svg PUBLIC "-//W3C//DTD SVG 20010904//EN"
 "http://www.w3.org/TR/2001/REC-SVG-20010904/DTD/svg10.dtd">
<svg version="1.0" xmlns="http://www.w3.org/2000/svg"
 width="256.000000pt" height="256.000000pt" viewBox="0 0 256.000000 256.000000"
 preserveAspectRatio="xMidYMid meet">
<metadata>
Created by potrace 1.11, written by Peter Selinger 2001-2013
</metadata>
<g transform="translate(0.000000,256.000000) scale(0.100000,-0.100000)"
fill="#000000" stroke="none">
<path d="M0 2415 c0 -136 1 -145 19 -145 10 0 21 6 24 14 7 18 47 28 47 11 0
-7 -7 -18 -15 -25 -11 -9 -12 -16 -3 -30 7 -10 15 -17 19 -14 4 2 13 -2 20 -9
11 -11 17 -11 40 0 39 20 77 83 49 83 -17 0 -59 50 -54 64 3 8 -1 27 -10 43
-8 15 -15 24 -16 18 0 -11 -60 -16 -60 -5 0 16 68 43 95 38 30 -6 95 16 95 32
0 5 11 12 24 16 15 3 26 15 29 30 l4 24 -153 0 -154 0 0 -145z"/>
<path d="M320 2540 c-9 -17 -8 -20 9 -20 11 0 26 -6 33 -12 7 -7 30 -21 51
-30 28 -13 37 -24 37 -42 0 -14 -4 -27 -9 -30 -4 -3 -6 6 -3 19 3 18 0 25 -11
25 -11 0 -15 -10 -15 -36 0 -23 -8 -44 -23 -60 -15 -16 -18 -23 -8 -19 9 3 29
1 45 -5 24 -10 37 -7 86 17 45 22 61 36 72 64 8 19 35 52 60 73 26 21 44 42
40 47 -3 5 -10 6 -16 3 -7 -4 -8 -2 -4 4 11 17 44 15 54 -4 8 -14 14 -15 45
-5 78 26 46 31 -192 31 -230 0 -241 -1 -251 -20z m120 -20 c-6 -12 -14 -19
-17 -17 -2 3 1 15 7 27 6 12 14 19 17 17 2 -3 -1 -15 -7 -27z"/>
<path d="M1738 2545 c32 -14 62 -11 62 6 0 5 -21 9 -47 9 l-48 -1 33 -14z"/>
<path d="M1808 2526 c-75 -42 -77 -45 -21 -34 54 10 94 4 90 -14 -1 -7 8 -14
21 -16 12 -2 22 -7 22 -10 0 -4 18 -6 40 -4 25 3 40 0 40 -7 0 -6 -8 -12 -17
-12 -48 -4 -64 -7 -71 -14 -4 -4 8 -6 26 -3 17 2 32 1 32 -4 0 -4 -4 -8 -9 -8
-5 0 -8 -8 -7 -17 1 -14 -7 -18 -29 -18 -25 0 -30 4 -29 23 0 16 -4 21 -13 17
-8 -3 -20 -5 -26 -5 -8 0 -7 -3 2 -9 11 -7 9 -13 -8 -30 -11 -11 -18 -21 -15
-21 3 0 -8 -12 -25 -26 -17 -14 -31 -32 -31 -39 0 -8 -13 -22 -30 -32 -16 -9
-30 -20 -31 -23 -10 -65 -2 -80 44 -80 34 0 34 6 1 37 -21 19 -24 26 -14 38
11 13 14 13 25 -2 11 -15 14 -14 31 13 28 44 64 61 64 30 0 -19 21 -26 43 -14
10 5 25 7 33 4 8 -3 14 0 14 6 0 6 3 9 6 5 4 -3 1 -20 -5 -37 -10 -29 -9 -31
7 -25 9 4 26 9 37 12 47 11 50 13 36 23 -8 4 -21 6 -30 3 -12 -5 -11 -1 4 14
11 12 25 20 30 19 6 0 9 10 8 24 -3 24 -2 25 13 5 10 -13 17 -16 22 -9 4 6 19
13 35 16 20 4 27 1 27 -10 0 -12 5 -11 20 6 25 27 25 30 -2 42 -21 9 -21 10 7
9 64 -2 83 2 105 21 l23 20 22 -20 c12 -11 31 -20 42 -20 11 0 26 -7 33 -15 7
-8 19 -15 27 -15 10 0 12 -6 8 -19 -4 -14 1 -25 20 -37 14 -9 25 -21 25 -26 0
-8 68 -78 76 -78 2 0 4 15 4 34 0 28 -9 41 -60 85 -42 36 -57 56 -53 68 5 14
1 15 -25 10 -28 -6 -32 -4 -32 14 0 11 -4 17 -10 14 -5 -3 -10 -2 -10 3 0 13
29 24 41 16 5 -3 7 -9 5 -13 -3 -4 10 -8 29 -9 19 -1 48 -8 64 -17 17 -8 35
-15 41 -15 6 0 10 38 10 105 l0 105 -165 0 c-91 0 -165 -4 -165 -8 0 -4 16
-14 36 -21 19 -7 33 -15 30 -18 -2 -3 -30 6 -60 20 -38 18 -56 22 -56 13 0
-20 22 -36 51 -36 15 0 31 -5 35 -11 3 -6 15 -9 25 -6 23 6 26 -11 4 -19 -11
-5 -13 -10 -5 -19 5 -6 7 -15 3 -18 -3 -4 -2 -7 4 -7 6 0 13 -7 17 -15 5 -13
2 -14 -22 -2 -30 15 -62 12 -62 -6 0 -7 -4 -6 -10 3 -7 11 -10 11 -10 2 0 -7
-5 -10 -10 -7 -6 3 -13 -1 -16 -9 -3 -9 -10 -13 -15 -10 -5 3 -9 -3 -9 -12 0
-10 -3 -14 -7 -11 -3 4 -12 2 -20 -4 -7 -7 -31 -12 -53 -13 -29 0 -39 -4 -35
-14 3 -7 0 -10 -6 -7 -5 4 -7 15 -4 26 5 14 2 19 -10 19 -12 0 -15 5 -11 17 4
9 1 20 -6 25 -7 4 2 5 21 2 18 -4 78 -1 132 6 95 13 107 19 97 47 -5 14 -167
-10 -220 -32 -13 -5 -19 0 -24 19 -4 15 -11 23 -18 19 -6 -3 4 8 23 26 60 54
53 61 -57 60 -89 -1 -102 -4 -154 -33z m550 -3 c25 -6 25 -6 4 -14 -26 -10
-48 -3 -56 18 -5 11 -2 13 10 9 9 -3 28 -9 42 -13z m45 -30 c-7 -2 -21 -2 -30
0 -10 3 -4 5 12 5 17 0 24 -2 18 -5z m44 1 c-3 -3 -12 -4 -19 -1 -8 3 -5 6 6
6 11 1 17 -2 13 -5z m13 -18 c0 -2 -8 -10 -17 -17 -16 -13 -17 -12 -4 4 13 16
21 21 21 13z m-462 -98 c7 -7 12 -18 12 -25 0 -10 -4 -11 -18 -2 -10 7 -19 18
-19 25 0 17 9 18 25 2z"/>
<path d="M1642 2512 c-22 -11 -32 -22 -29 -33 3 -9 -4 -24 -14 -33 -18 -15
-18 -18 -3 -41 16 -25 34 -33 34 -16 0 5 -7 11 -15 15 -8 3 -15 10 -15 15 0 6
6 8 13 6 12 -5 43 33 33 42 -10 10 46 52 62 46 15 -4 15 -3 2 6 -19 14 -28 13
-68 -7z"/>
<path d="M837 2503 c-3 -5 5 -21 19 -36 13 -14 24 -31 24 -37 0 -15 10 -12 54
13 58 32 55 44 -10 52 -31 4 -63 9 -70 12 -6 2 -14 0 -17 -4z"/>
<path d="M1270 2498 c0 -4 -8 -8 -17 -8 -16 -1 -16 -2 2 -16 19 -15 19 -15
-10 -9 -28 5 -28 5 -6 -5 l24 -10 -21 -23 c-26 -28 -29 -47 -4 -25 9 9 28 15
42 13 14 -1 31 -3 38 -4 9 -1 11 -8 6 -23 -6 -20 -5 -21 9 -6 26 26 32 83 10
105 -18 18 -73 26 -73 11z m24 -53 c-4 -8 -8 -15 -10 -15 -2 0 -4 7 -4 15 0 8
4 15 10 15 5 0 7 -7 4 -15z"/>
<path d="M2023 2484 c-7 -19 2 -28 22 -21 19 8 19 23 0 31 -9 3 -18 -1 -22
-10z"/>
<path d="M651 2455 c-43 -49 -38 -85 8 -56 11 7 10 11 -5 20 -18 10 -17 13 11
36 16 13 27 27 23 30 -3 3 -19 -10 -37 -30z"/>
<path d="M316 2449 c19 -5 35 -18 39 -31 6 -20 8 -21 12 -5 7 26 -11 42 -49
44 l-33 2 31 -10z"/>
<path d="M1733 2445 c-3 -9 -3 -18 -1 -21 3 -3 8 4 11 16 6 23 -1 27 -10 5z"/>
<path d="M780 2430 c-6 -11 -8 -25 -5 -30 10 -17 32 -11 38 10 3 11 1 20 -5
20 -5 0 -6 5 -3 10 3 6 2 10 -4 10 -6 0 -15 -9 -21 -20z"/>
<path d="M1497 2422 c-23 -25 -21 -35 3 -22 11 6 18 15 15 20 -3 5 3 11 12 13
15 4 15 5 2 6 -9 0 -23 -7 -32 -17z"/>
<path d="M326 2421 c-4 -7 -5 -15 -2 -18 9 -9 19 4 14 18 -4 11 -6 11 -12 0z"/>
<path d="M690 2420 c0 -5 7 -10 15 -10 8 0 12 -6 9 -13 -3 -8 3 -20 12 -28 15
-13 16 -11 9 11 -12 40 -45 69 -45 40z"/>
<path d="M885 2395 c-42 -35 -44 -52 -4 -36 13 5 20 10 15 10 -5 1 1 12 14 26
36 38 20 38 -25 0z"/>
<path d="M199 2402 c-9 -2 -19 -14 -21 -27 -4 -17 -1 -22 10 -18 11 5 13 1 8
-15 -8 -23 19 -37 48 -26 15 6 16 8 1 24 -9 10 -19 29 -23 42 -4 15 -13 22
-23 20z"/>
<path d="M1675 2390 c3 -5 11 -10 16 -10 6 0 7 5 4 10 -3 6 -11 10 -16 10 -6
0 -7 -4 -4 -10z"/>
<path d="M950 2375 c6 -8 9 -19 5 -25 -3 -5 -2 -10 4 -10 18 0 21 18 5 34 -19
20 -31 21 -14 1z"/>
<path d="M1233 2359 c-24 -29 -30 -44 -13 -34 6 3 10 -5 10 -19 0 -21 6 -25
43 -31 23 -3 51 -9 62 -12 18 -5 18 -4 6 11 -9 11 -11 20 -5 24 11 8 13 62 2
55 -5 -2 -8 -13 -8 -23 0 -24 -36 -46 -43 -27 -4 9 -6 9 -6 0 -2 -23 -31 -14
-41 13 -11 27 -6 44 11 44 6 0 8 -3 6 -7 -3 -5 8 -8 24 -8 18 0 29 5 29 14 0
8 -3 11 -7 8 -3 -4 -16 -1 -27 6 -19 12 -23 11 -43 -14z"/>
<path d="M1391 2364 c-11 -13 -15 -14 -22 -2 -6 8 -9 9 -9 1 0 -6 -3 -18 -6
-26 -4 -11 1 -13 23 -10 22 4 25 2 13 -6 -12 -9 -10 -11 11 -11 15 0 29 7 33
15 3 8 16 15 30 15 13 0 26 -7 30 -15 3 -8 13 -15 22 -15 10 0 14 -3 11 -6 -3
-4 -2 -15 3 -25 7 -12 6 -19 -3 -22 -9 -4 -9 -6 1 -6 8 -1 23 9 34 22 15 17
18 18 14 5 -8 -26 40 -24 54 2 16 29 -4 61 -35 57 -13 -1 -27 -6 -31 -10 -13
-13 -34 -7 -34 9 0 8 -5 12 -10 9 -6 -4 -17 -1 -25 5 -8 7 -21 10 -29 7 -8 -3
-22 1 -33 8 -23 18 -25 18 -42 -1z"/>
<path d="M1715 2345 c1 -11 3 -26 4 -32 2 -19 47 -16 66 4 15 15 15 17 1 25
-9 5 -14 13 -11 18 3 5 -10 8 -28 7 -28 -2 -34 -6 -32 -22z m55 -15 c0 -5 -8
-10 -17 -10 -15 0 -16 2 -3 10 19 12 20 12 20 0z"/>
<path d="M580 2340 c12 -8 12 -10 -5 -11 -17 -1 -16 -2 5 -9 24 -8 23 -8 -8
-9 -50 -1 -28 -21 23 -21 36 0 47 -5 64 -27 18 -25 19 -26 14 -5 -3 12 -10 22
-15 22 -6 0 -7 7 -4 15 3 9 1 15 -7 14 -23 -3 -40 1 -34 8 7 7 -22 32 -38 33
-5 0 -3 -5 5 -10z"/>
<path d="M283 2330 c18 -11 18 -12 0 -26 -10 -7 -14 -14 -10 -14 5 0 20 9 34
20 18 14 21 20 10 20 -8 0 -24 3 -34 6 -17 5 -17 5 0 -6z"/>
<path d="M795 2329 l-30 -6 30 -12 c16 -7 38 -20 48 -28 9 -9 18 -14 20 -12
11 15 27 63 23 67 -3 3 -8 -3 -12 -12 -7 -19 -18 -20 -36 -3 -8 8 -24 10 -43
6z"/>
<path d="M1640 2330 c0 -5 4 -10 9 -10 6 0 13 5 16 10 3 6 -1 10 -9 10 -9 0
-16 -4 -16 -10z"/>
<path d="M1672 2318 c-17 -17 -15 -55 5 -62 9 -4 20 -1 25 6 11 19 10 28 -6
34 -8 3 -12 12 -9 20 6 17 1 18 -15 2z"/>
<path d="M900 2314 c0 -6 7 -19 16 -30 14 -18 14 -18 3 6 -14 31 -19 36 -19
24z"/>
<path d="M2204 2308 c-5 -7 -3 -8 6 -3 10 6 12 4 7 -8 -5 -13 0 -17 20 -17 25
0 26 0 8 20 -21 23 -31 25 -41 8z"/>
<path d="M1020 2294 c26 -12 41 -13 65 -6 29 10 28 10 -17 11 -25 1 -55 3 -65
6 -10 3 -2 -2 17 -11z"/>
<path d="M1138 2303 c7 -3 16 -2 19 1 4 3 -2 6 -13 5 -11 0 -14 -3 -6 -6z"/>
<path d="M225 2275 c0 -36 22 -40 23 -4 0 16 -5 29 -11 29 -7 0 -12 -11 -12
-25z"/>
<path d="M1192 2273 c2 -10 11 -19 21 -21 16 -3 17 -1 7 17 -13 25 -33 28 -28
4z"/>
<path d="M785 2270 c3 -5 8 -10 11 -10 2 0 4 5 4 10 0 6 -5 10 -11 10 -5 0 -7
-4 -4 -10z"/>
<path d="M2242 2273 c-13 -3 -19 -9 -16 -15 4 -6 2 -8 -4 -5 -12 8 -42 -2 -42
-13 0 -5 7 -11 15 -13 11 -4 11 -5 -2 -3 -9 0 -20 12 -23 26 -6 23 -7 22 -14
-12 -4 -21 -11 -40 -16 -43 -6 -3 -7 1 -4 9 4 10 1 16 -10 16 -13 0 -14 -5 -5
-26 13 -35 6 -41 -11 -9 -12 23 -14 23 -26 7 -11 -14 -16 -15 -33 -5 -17 11
-24 9 -45 -12 -15 -15 -31 -22 -41 -19 -10 4 -22 -1 -32 -15 -8 -12 -26 -27
-40 -32 -35 -13 -24 -21 14 -10 36 10 133 3 150 -10 17 -15 27 9 12 27 -11 14
-8 15 32 13 60 -4 68 -7 62 -30 -6 -22 -7 -23 -32 -7 -15 9 -22 8 -35 -5 -9
-8 -16 -22 -16 -30 0 -8 -6 -17 -14 -20 -17 -7 -41 18 -32 32 11 17 -12 22
-35 9 -17 -10 -23 -10 -26 0 -3 6 -18 12 -35 12 -25 0 -28 -2 -19 -14 17 -20
-1 -28 -43 -20 -45 8 -63 28 -46 49 11 13 10 14 -5 9 -13 -5 -16 -4 -11 4 11
18 0 14 -15 -5 -9 -11 -10 -14 -2 -9 9 5 11 2 6 -9 -4 -13 -8 -14 -14 -4 -4 8
-11 11 -14 7 -10 -9 14 -50 26 -43 5 4 9 -1 9 -9 0 -9 6 -13 14 -10 11 4 13 0
9 -15 -4 -14 -1 -21 10 -21 8 0 27 -7 43 -15 26 -13 31 -12 62 7 27 17 50 21
100 20 50 0 69 4 84 18 11 10 18 22 15 27 -3 5 8 8 26 5 25 -3 29 -1 17 7 -13
10 -11 14 10 31 14 11 33 20 43 20 9 0 17 5 17 10 0 6 5 10 10 10 6 0 10 -6
10 -14 0 -7 7 -19 15 -26 22 -18 60 1 85 42 l20 33 -7 -35 c-3 -19 -16 -42
-27 -52 -25 -20 -67 -23 -84 -6 -10 10 -15 10 -22 -2 -11 -18 6 -41 26 -33 8
3 24 3 37 -1 17 -4 22 -12 22 -37 0 -27 5 -34 29 -40 39 -11 41 -7 11 23 -21
21 -23 27 -10 32 8 3 23 3 33 0 9 -2 2 3 -15 12 -35 18 -43 38 -19 47 7 3 28
-9 46 -28 23 -23 28 -34 18 -38 -7 -3 -2 -6 10 -6 15 -1 26 6 29 18 2 10 16
24 29 32 28 15 15 28 -22 21 -59 -11 -99 30 -75 77 9 16 5 18 -32 18 -23 0
-55 8 -72 17 -26 13 -27 16 -9 16 35 0 47 23 25 48 -18 21 -32 24 -79 15z m11
-60 c-7 -2 -19 -2 -25 0 -7 3 -2 5 12 5 14 0 19 -2 13 -5z m-34 -27 c10 -12 8
-13 -9 -9 -25 7 -37 23 -17 23 8 0 20 -6 26 -14z m125 -25 c10 -15 -12 -61
-28 -61 -23 0 -31 21 -12 32 21 12 20 25 -1 31 -12 3 -8 5 9 6 15 0 29 -3 32
-8z"/>
<path d="M355 2261 c17 -4 40 -13 53 -20 26 -14 30 -4 5 15 -10 7 -34 13 -53
13 l-35 -1 30 -7z"/>
<path d="M535 2263 c-29 -7 -45 -23 -45 -45 0 -32 -30 -54 -108 -81 -40 -14
-41 -14 -61 14 -14 19 -27 26 -37 22 -15 -5 -14 -7 1 -16 16 -8 15 -12 -11
-32 -25 -20 -28 -28 -25 -73 1 -28 -2 -53 -8 -57 -6 -3 -11 -10 -11 -16 0 -18
30 -8 63 21 58 50 87 35 71 -38 l-8 -37 -6 35 c-5 34 -6 34 -18 13 -8 -14 -9
-24 -2 -28 5 -3 10 -15 10 -26 0 -18 2 -19 30 -4 16 8 37 15 47 15 21 0 55 54
47 75 -12 30 -34 16 -34 -22 0 -46 -10 -38 -14 11 -4 60 34 74 55 20 8 -22 12
-23 30 -13 12 6 62 11 113 10 86 -1 92 -2 115 -28 14 -16 26 -23 28 -16 5 15
50 63 59 63 5 0 21 -12 37 -27 l30 -28 -7 34 c-3 18 -6 38 -6 42 0 5 -11 14
-25 19 -32 12 -34 52 -2 74 17 12 18 14 3 9 -14 -5 -17 -3 -11 6 9 16 -28 7
-62 -15 -20 -13 -23 -13 -23 2 0 26 53 80 74 76 11 -3 16 0 12 7 -14 22 -63
12 -88 -18 -14 -16 -34 -34 -46 -40 -12 -6 -22 -19 -22 -27 0 -8 4 -13 10 -9
5 3 17 -9 26 -27 9 -18 11 -28 4 -21 -10 9 -16 8 -27 -3 -15 -14 -19 -14 -115
6 -31 7 -79 11 -107 8 -58 -6 -58 7 0 22 22 6 37 15 34 19 -3 5 1 11 9 14 20
8 26 77 6 77 -12 1 -11 3 3 11 10 6 21 8 24 5 4 -3 12 -1 20 5 9 9 13 8 13 0
0 -6 5 -11 11 -11 8 0 8 5 -1 15 -13 15 -20 16 -55 8z m-162 -162 c10 -10 6
-12 -17 -9 -16 2 -31 9 -34 16 -5 16 33 11 51 -7z m434 13 c-3 -3 -12 -4 -19
-1 -8 3 -5 6 6 6 11 1 17 -2 13 -5z"/>
<path d="M918 2236 c-33 -33 -23 -62 38 -106 62 -46 69 -74 19 -76 -22 0 -39
9 -61 33 l-32 33 13 -42 c12 -42 13 -43 61 -46 56 -3 80 10 89 48 8 33 -24 75
-70 91 -29 11 -34 18 -37 48 -3 33 -4 34 -20 17z"/>
<path d="M950 2240 c0 -5 10 -10 22 -10 12 0 32 -10 45 -22 23 -21 23 -21 23
-1 0 15 -10 24 -31 32 -40 14 -59 14 -59 1z"/>
<path d="M1550 2230 c-14 -4 -19 -8 -12 -9 8 -1 12 -26 12 -90 0 -62 -4 -91
-12 -94 -7 -3 6 -6 29 -6 39 -1 42 1 35 20 -10 25 -3 79 8 79 5 0 14 -16 20
-35 16 -47 35 -65 73 -65 31 0 31 0 10 15 -28 19 -50 82 -34 98 15 15 14 70
-1 85 -13 13 -89 14 -128 2z m90 -15 c18 -22 -4 -74 -32 -75 -5 0 -8 20 -8 45
0 47 16 59 40 30z"/>
<path d="M386 2221 c-4 -7 -5 -15 -2 -18 9 -9 19 4 14 18 -4 11 -6 11 -12 0z"/>
<path d="M1058 2223 c8 -3 12 -28 12 -74 0 -61 3 -73 25 -94 29 -30 65 -32 88
-7 13 14 17 37 17 88 0 41 5 75 12 82 9 9 6 12 -16 12 -23 0 -26 -3 -17 -14
18 -22 10 -136 -11 -149 -12 -8 -21 -7 -32 2 -20 17 -23 146 -3 154 6 3 -10 5
-38 5 -27 0 -44 -2 -37 -5z"/>
<path d="M1238 2218 c17 -17 16 -175 0 -181 -7 -3 10 -6 37 -6 28 0 45 3 38 7
-12 7 -16 25 -14 55 1 11 9 17 24 17 56 0 77 82 27 107 -34 17 -129 18 -112 1z
m97 -29 c8 -25 -2 -56 -20 -63 -12 -4 -15 5 -15 44 0 39 3 48 15 44 8 -3 17
-14 20 -25z"/>
<path d="M1384 2222 c3 -5 6 -46 7 -91 1 -62 -2 -85 -12 -92 -9 -5 15 -9 64
-9 72 0 77 1 77 22 0 20 -1 20 -19 4 -32 -29 -56 -17 -59 32 -2 32 0 42 12 42
8 0 20 -8 25 -17 8 -14 10 -8 10 27 0 37 -2 41 -9 23 -16 -39 -40 -29 -40 17
0 36 3 40 24 40 14 0 32 -10 41 -22 l16 -23 -3 25 c-3 24 -7 25 -71 28 -38 2
-66 -1 -63 -6z"/>
<path d="M1856 2221 c-4 -7 -5 -15 -2 -18 9 -9 19 4 14 18 -4 11 -6 11 -12 0z"/>
<path d="M202 2206 c8 -6 13 -17 11 -23 -3 -7 3 -13 14 -13 15 0 16 -2 3 -10
-13 -8 -12 -10 3 -10 11 0 17 8 17 24 0 27 -17 43 -44 43 -16 0 -16 -2 -4 -11z"/>
<path d="M625 2199 l-30 -21 27 5 c24 4 25 2 16 -19 -10 -21 -13 -22 -37 -10
-33 16 -58 10 -64 -15 -7 -28 23 -42 46 -21 16 14 17 14 12 0 -4 -9 -3 -18 2
-21 15 -9 40 17 52 55 7 21 17 40 22 43 13 9 11 25 -3 25 -7 0 -26 -10 -43
-21z"/>
<path d="M1917 2213 c-4 -3 -7 -11 -7 -17 0 -6 5 -5 12 2 6 6 9 14 7 17 -3 3
-9 2 -12 -2z"/>
<path d="M2056 2211 c-4 -5 -2 -12 3 -15 5 -4 12 -2 15 3 4 5 2 12 -3 15 -5 4
-12 2 -15 -3z"/>
<path d="M2428 2193 c6 -2 18 -2 25 0 6 3 1 5 -13 5 -14 0 -19 -2 -12 -5z"/>
<path d="M20 2150 c-9 -6 -10 -10 -3 -10 6 0 15 5 18 10 8 12 4 12 -15 0z"/>
<path d="M103 2149 c9 -6 15 -14 12 -19 -3 -5 -1 -18 5 -29 5 -11 11 -31 12
-45 1 -15 6 -26 10 -26 4 0 8 -8 8 -19 0 -13 -15 -25 -50 -40 -53 -23 -69 -48
-24 -37 22 6 25 4 22 -16 -4 -33 -39 -34 -71 -2 l-27 27 1 -129 c1 -71 4 -120
6 -109 3 18 11 20 89 18 47 -1 88 -4 91 -6 2 -3 -1 -15 -7 -27 -15 -27 -8 -35
19 -20 16 8 21 8 21 -2 0 -9 3 -9 9 1 6 10 5 26 -3 46 -38 89 -23 189 27 184
28 -3 67 10 67 22 0 6 -9 7 -21 4 -16 -5 -19 -4 -14 5 5 8 4 11 -3 6 -6 -4 -8
-14 -5 -24 5 -13 3 -14 -7 -5 -7 6 -18 9 -25 7 -7 -3 -16 0 -21 7 -5 8 -3 10
6 4 9 -5 11 -4 6 4 -4 6 -12 9 -17 6 -5 -4 -14 6 -21 21 -10 22 -10 28 4 38
10 7 17 31 19 62 l4 50 -28 -14 c-28 -14 -57 -11 -57 6 0 5 10 14 23 20 22 10
21 11 -6 11 -15 1 -30 8 -33 16 -4 8 -14 15 -23 15 -14 -1 -14 -2 2 -11z m67
-178 c0 -14 -7 -18 -24 -17 -18 1 -22 4 -14 13 6 7 14 10 19 7 5 -3 9 0 9 5 0
6 2 11 5 11 3 0 5 -9 5 -19z m30 -40 c0 -9 -22 -31 -31 -31 -4 0 -9 8 -11 18
-4 12 2 17 19 18 12 1 23 -1 23 -5z"/>
<path d="M2443 2134 c-8 -21 13 -42 28 -27 13 13 5 43 -11 43 -6 0 -13 -7 -17
-16z"/>
<path d="M19 2083 c-13 -16 -12 -17 4 -4 9 7 17 15 17 17 0 8 -8 3 -21 -13z"/>
<path d="M2540 2061 c0 -5 5 -13 10 -16 6 -3 10 -2 10 4 0 5 -4 13 -10 16 -5
3 -10 2 -10 -4z"/>
<path d="M72 2024 c-13 -9 -34 -14 -48 -11 -29 5 -31 -9 -4 -43 l20 -25 0 28
c0 15 3 27 8 27 8 0 60 39 52 40 -3 0 -16 -7 -28 -16z"/>
<path d="M1734 2015 c-9 -22 36 -61 48 -42 11 17 10 57 -2 57 -5 0 -10 -5 -10
-11 0 -8 -5 -8 -15 1 -12 10 -16 9 -21 -5z"/>
<path d="M1983 1993 c-45 -9 -69 -78 -40 -116 6 -9 35 -32 62 -50 42 -27 50
-37 50 -62 0 -58 -76 -38 -109 28 l-16 32 0 -43 c0 -40 3 -44 35 -58 84 -35
155 -7 155 60 0 44 -29 79 -95 114 -58 32 -73 67 -32 77 30 8 64 -8 92 -41
l20 -24 -3 40 c-4 36 -7 40 -31 40 -14 0 -35 2 -46 4 -11 2 -30 2 -42 -1z"/>
<path d="M497 1978 c-9 -7 -21 -26 -27 -41 -15 -42 6 -77 64 -107 27 -14 54
-33 60 -43 16 -25 -4 -51 -43 -55 -27 -3 -39 3 -68 35 -33 34 -36 35 -30 13 4
-14 7 -33 7 -42 0 -47 115 -45 162 3 52 52 25 135 -50 154 -56 14 -79 55 -42
75 27 15 66 3 90 -27 20 -26 25 -17 14 25 -6 19 -13 22 -63 22 -32 0 -65 -6
-74 -12z"/>
<path d="M658 1979 c8 -9 12 -47 12 -114 0 -67 -4 -106 -12 -114 -11 -11 -10
-13 5 -7 10 3 24 6 30 6 8 0 7 4 -1 12 -7 7 -12 42 -12 88 1 84 8 79 35 -22 9
-38 21 -68 25 -68 5 0 18 37 29 83 l20 82 -2 -78 c-2 -76 -2 -77 23 -76 35 1
119 16 98 18 -32 2 -17 50 16 52 16 1 17 2 4 6 -19 5 -21 16 -9 48 8 19 8 19
18 0 11 -22 28 -86 25 -97 -1 -4 35 -7 81 -7 97 1 127 15 127 59 0 30 -18 49
-80 83 -37 20 -35 41 3 45 18 2 34 -5 50 -22 l23 -25 -4 29 c-4 28 -7 30 -52
30 -98 0 -110 -74 -20 -120 43 -22 51 -43 22 -59 -20 -11 -49 1 -73 31 -15 20
-16 19 -11 -13 7 -50 -3 -34 -42 66 -19 49 -39 91 -44 93 -6 2 -25 -42 -41
-96 -28 -90 -48 -122 -65 -105 -12 13 -6 191 7 197 6 3 -4 4 -23 3 -35 -2 -35
-3 -51 -72 -18 -74 -20 -73 -42 15 -12 52 -15 55 -48 58 -27 3 -32 1 -21 -9z"/>
<path d="M1178 1981 c10 -6 13 -31 10 -95 l-3 -86 25 0 c24 0 25 3 22 45 -4
43 -3 45 22 45 24 0 26 -4 26 -39 0 -22 -5 -42 -12 -44 -7 -3 3 -6 22 -6 l35
-1 0 95 0 95 -35 0 c-23 0 -30 -3 -22 -9 8 -5 12 -22 10 -42 -2 -27 -8 -35
-27 -37 -22 -3 -23 -1 -20 42 l4 46 -35 0 c-23 0 -30 -3 -22 -9z"/>
<path d="M1398 1981 c10 -6 13 -31 10 -94 l-3 -86 47 -6 c52 -7 87 6 89 33 2
31 -2 47 -17 59 -10 7 -12 13 -5 18 15 9 14 58 -1 73 -7 7 -39 12 -72 12 -37
0 -56 -4 -48 -9z m87 -41 c0 -25 -5 -36 -17 -38 -15 -3 -18 4 -18 38 0 34 3
41 18 38 12 -2 17 -13 17 -38z m5 -64 c18 -23 8 -61 -17 -64 -21 -3 -23 1 -23
37 0 43 17 54 40 27z"/>
<path d="M1548 1983 c8 -3 12 -32 12 -93 0 -61 -4 -90 -12 -93 -7 -3 4 -6 24
-6 l37 -1 3 48 3 47 22 -42 c25 -46 57 -73 86 -73 17 0 17 3 -5 29 -34 40 -56
93 -40 99 16 5 16 64 0 80 -7 7 -39 12 -77 11 -37 0 -60 -3 -53 -6z m92 -18
c15 -19 5 -65 -15 -65 -11 0 -15 11 -15 40 0 42 9 50 30 25z"/>
<path d="M2126 1975 c4 -8 7 -15 9 -15 2 0 5 7 9 15 3 9 0 15 -9 15 -9 0 -12
-6 -9 -15z"/>
<path d="M2160 1978 c0 -22 12 -29 30 -18 12 7 12 12 2 22 -9 9 -12 9 -12 -2
0 -13 -2 -13 -10 0 -8 13 -10 13 -10 -2z"/>
<path d="M1800 1920 l0 -60 60 0 60 0 0 31 c0 20 -10 40 -29 60 -20 19 -40 29
-60 29 l-31 0 0 -60z"/>
<path d="M2217 1973 c-4 -3 -7 -11 -7 -17 0 -6 5 -5 12 2 6 6 9 14 7 17 -3 3
-9 2 -12 -2z"/>
<path d="M2239 1964 c-5 -6 -8 -18 -7 -25 2 -7 -8 -15 -22 -19 l-25 -6 25 -7
c13 -3 25 -5 25 -4 1 1 11 15 23 31 12 16 22 32 22 36 0 11 -30 7 -41 -6z"/>
<path d="M857 1946 c-6 -15 1 -26 15 -26 4 0 8 9 8 20 0 23 -15 27 -23 6z"/>
<path d="M1725 1930 c-21 -41 -20 -70 5 -70 17 0 20 7 20 50 0 28 -2 50 -5 50
-2 0 -11 -13 -20 -30z"/>
<path d="M540 1941 c0 -9 24 -21 41 -21 5 0 9 7 9 15 0 9 -9 15 -25 15 -14 0
-25 -4 -25 -9z"/>
<path d="M2148 1928 c9 -9 15 -9 24 0 9 9 7 12 -12 12 -19 0 -21 -3 -12 -12z"/>
<path d="M2522 1904 c10 -10 20 -16 22 -13 3 3 -5 11 -17 18 -21 13 -21 12 -5
-5z"/>
<path d="M2308 1897 c9 -10 4 -12 -23 -9 -33 4 -47 -9 -25 -23 6 -3 10 -14 10
-23 0 -11 -3 -13 -8 -6 -4 6 -23 15 -42 19 -19 4 -39 10 -45 13 -5 3 -19 7
-32 8 -24 3 -29 -11 -13 -36 7 -12 12 -12 29 4 12 11 21 14 21 9 0 -6 -9 -17
-20 -24 l-21 -14 21 -40 c31 -61 26 -76 -35 -104 l-30 -14 34 -11 c52 -18 51
-36 -2 -33 -25 1 -43 5 -41 9 6 9 -82 22 -95 13 -6 -3 -11 -1 -11 4 0 6 -15
11 -34 11 -34 0 -47 -13 -45 -48 0 -11 4 -8 10 8 l10 25 24 -27 c30 -35 93
-62 111 -47 7 6 10 18 7 27 -6 14 -4 15 9 4 8 -7 22 -10 30 -7 25 10 56 -67
48 -118 -3 -24 -3 -52 0 -62 6 -18 7 -18 17 -1 9 16 12 15 35 -12 17 -20 29
-27 35 -21 7 7 18 1 34 -18 13 -15 33 -28 44 -27 32 2 60 18 60 34 0 8 21 22
49 32 l48 18 -6 -26 c-4 -15 -22 -42 -41 -61 -20 -20 -31 -40 -29 -51 4 -13
-7 -22 -43 -37 -26 -11 -51 -21 -55 -23 -4 -2 -8 4 -8 13 0 9 -4 14 -9 11 -10
-7 -9 -31 2 -42 3 -3 26 4 51 15 35 17 49 20 65 12 25 -14 68 -14 76 -1 4 6
15 4 30 -6 22 -14 26 -14 40 -1 8 9 15 20 15 25 0 14 -34 25 -38 13 -2 -6 -11
-11 -20 -11 -15 1 -15 2 1 14 19 14 23 36 7 36 -5 0 -10 10 -10 21 0 19 4 21
30 15 l30 -6 -1 195 c0 131 -4 197 -12 202 -6 3 -13 1 -15 -5 -2 -7 -8 -9 -13
-6 -6 3 -5 12 3 22 10 12 10 14 1 8 -16 -9 -16 -6 1 35 7 19 11 41 9 49 -3 8
-6 21 -8 27 -6 18 -75 -24 -76 -45 0 -12 -3 -10 -9 6 -5 12 -14 22 -20 22 -5
0 -10 6 -10 14 0 7 -9 25 -21 40 -15 19 -30 26 -56 26 -28 0 -33 -3 -25 -13z
m212 -75 c-1 -4 -12 -20 -27 -37 -24 -28 -25 -29 -9 -3 19 33 20 42 4 32 -9
-5 -9 -3 1 9 12 16 31 15 31 -1z m-96 -66 c-3 -15 -8 -25 -11 -23 -2 3 -1 17
3 31 3 15 8 25 11 23 2 -3 1 -17 -3 -31z m-133 -22 c39 7 37 -9 -3 -34 l-33
-20 -22 25 c-13 15 -23 33 -23 42 0 13 3 13 26 -2 17 -11 37 -15 55 -11z m196
-9 c0 -11 -43 -35 -64 -35 -9 0 3 22 12 22 6 0 19 7 30 14 24 17 22 17 22 -1z
m51 -76 c-3 -8 -7 -3 -11 10 -4 17 -3 21 5 13 5 -5 8 -16 6 -23z m-351 5 c-3
-3 -12 -4 -19 -1 -8 3 -5 6 6 6 11 1 17 -2 13 -5z m169 -16 c-9 -12 -16 -35
-16 -50 0 -16 -4 -28 -10 -28 -5 0 -10 11 -10 25 0 28 26 75 42 75 5 0 2 -10
-6 -22z m-116 -65 c0 -19 -33 20 -43 52 -6 15 -1 14 18 -8 14 -15 25 -35 25
-44z m205 4 c15 -21 14 -22 -17 -30 -27 -7 -34 -5 -48 13 -10 13 -15 33 -12
51 l4 29 29 -21 c16 -11 36 -30 44 -42z m25 -54 c-8 -3 -23 -10 -32 -15 -11
-5 -18 -5 -18 1 0 10 23 18 50 19 13 0 13 0 0 -5z m-150 -43 c28 -5 52 -4 63
2 16 8 17 7 9 -9 -13 -23 10 -59 30 -48 7 4 6 0 -3 -9 -9 -10 -36 -19 -60 -22
-24 -2 -55 -7 -67 -10 -14 -3 -21 -1 -18 5 4 5 2 12 -4 16 -15 9 -12 36 7 57
16 18 16 18 0 12 -10 -3 -17 -1 -17 5 0 13 1 13 60 1z m220 -115 c0 -14 -4
-25 -9 -25 -4 0 -6 11 -3 25 2 14 6 25 8 25 2 0 4 -11 4 -25z m-92 -93 c2 -7
-3 -12 -12 -12 -9 0 -16 7 -16 16 0 17 22 14 28 -4z m-31 -38 c-3 -3 -12 -4
-19 -1 -8 3 -5 6 6 6 11 1 17 -2 13 -5z"/>
<path d="M2288 1449 c-44 -25 -10 -52 60 -47 30 2 38 7 34 18 -12 36 -58 50
-94 29z"/>
<path d="M2406 1885 c19 -30 26 -28 17 3 -3 12 -12 22 -19 22 -12 0 -11 -5 2
-25z"/>
<path d="M300 1881 c0 -14 32 -23 44 -11 5 5 6 13 2 17 -4 4 -11 1 -16 -7 -7
-10 -10 -11 -10 -2 0 6 -4 12 -10 12 -5 0 -10 -4 -10 -9z"/>
<path d="M433 1863 c9 -2 14 -9 11 -15 -4 -7 -2 -8 5 -4 15 10 4 26 -17 25
-15 -1 -15 -2 1 -6z"/>
<path d="M1720 1831 c0 -5 7 -14 15 -21 13 -10 15 -9 15 9 0 12 -6 21 -15 21
-8 0 -15 -4 -15 -9z"/>
<path d="M1807 1833 c-4 -3 -7 -20 -7 -36 0 -28 2 -29 32 -23 31 6 78 41 78
58 0 10 -94 11 -103 1z"/>
<path d="M416 1803 c-6 -14 -5 -15 5 -6 7 7 10 15 7 18 -3 3 -9 -2 -12 -12z"/>
<path d="M487 1813 c-4 -3 -7 -11 -7 -17 0 -6 5 -5 12 2 6 6 9 14 7 17 -3 3
-9 2 -12 -2z"/>
<path d="M500 1780 c0 -5 5 -10 10 -10 6 0 10 5 10 10 0 6 -4 10 -10 10 -5 0
-10 -4 -10 -10z"/>
<path d="M535 1770 c3 -5 13 -10 21 -10 8 0 12 5 9 10 -3 6 -13 10 -21 10 -8
0 -12 -4 -9 -10z"/>
<path d="M1650 1760 c0 -5 7 -10 16 -10 8 0 12 5 9 10 -3 6 -10 10 -16 10 -5
0 -9 -4 -9 -10z"/>
<path d="M1890 1736 c0 -15 18 -31 26 -23 7 7 -7 37 -17 37 -5 0 -9 -6 -9 -14z"/>
<path d="M268 1733 c6 -2 18 -2 25 0 6 3 1 5 -13 5 -14 0 -19 -2 -12 -5z"/>
<path d="M1005 1729 c-172 -14 -473 -64 -461 -76 2 -3 42 2 88 11 380 69 1015
64 1377 -10 40 -8 75 -13 77 -11 6 6 -182 45 -296 62 -225 33 -551 43 -785 24z"/>
<path d="M2134 1729 c-7 -12 15 -31 28 -23 4 3 8 12 8 20 0 17 -26 19 -36 3z"/>
<path d="M345 1716 c-33 -24 8 -66 45 -46 26 14 29 13 23 -9 -5 -21 18 -42 25
-22 2 7 12 20 22 28 16 14 16 16 -5 37 -25 25 -84 31 -110 12z"/>
<path d="M675 1720 c4 -6 11 -8 16 -5 14 9 11 15 -7 15 -8 0 -12 -5 -9 -10z"/>
<path d="M2045 1670 c3 -5 13 -10 21 -10 8 0 12 5 9 10 -3 6 -13 10 -21 10 -8
0 -12 -4 -9 -10z"/>
<path d="M243 1664 c4 -4 -7 -14 -24 -21 -17 -7 -28 -17 -24 -23 4 -6 11 -8
16 -5 8 6 9 3 9 -22 0 -5 -10 -8 -23 -8 -13 0 -23 -8 -25 -19 -3 -11 0 -16 7
-12 6 4 11 2 11 -4 0 -7 7 -10 15 -6 12 4 53 -7 73 -20 2 -1 -8 -23 -23 -49
-15 -25 -30 -44 -33 -41 -3 3 1 13 9 23 12 14 12 16 0 9 -9 -6 -26 5 -57 38
-38 42 -47 47 -83 45 l-40 -3 17 -30 c18 -35 24 -58 12 -51 -4 3 -10 -3 -13
-14 -2 -10 -15 -21 -27 -24 -17 -4 -20 -3 -11 6 6 6 10 25 10 42 -1 23 -3 25
-6 8 -5 -25 -19 -30 -26 -10 -2 6 -5 -33 -5 -88 -1 -81 1 -97 11 -84 18 22 44
30 50 14 4 -8 -6 -18 -23 -25 -33 -14 -49 -48 -29 -61 8 -5 9 -9 3 -9 -6 0
-11 -34 -13 -90 -1 -58 2 -90 8 -90 7 0 11 29 11 75 0 41 3 75 6 75 11 0 33
-34 33 -50 0 -10 -3 -8 -9 5 -7 17 -9 15 -9 -12 -1 -18 -2 -36 -3 -40 -2 -5
31 -9 72 -10 106 -3 140 -10 140 -31 -1 -21 -24 -49 -71 -83 -34 -26 -69 -100
-50 -107 5 -2 7 -11 4 -21 -6 -23 56 -59 67 -40 5 8 16 6 38 -5 46 -24 54 -19
24 12 -15 15 -30 26 -34 24 -4 -1 -5 3 -2 11 3 8 -2 17 -10 20 -10 4 -16 19
-16 37 0 17 4 29 9 25 5 -3 13 5 17 17 8 26 39 60 48 51 3 -3 13 0 21 7 12 10
19 10 27 2 8 -8 17 -8 30 -1 14 7 23 7 33 -1 8 -7 19 -9 24 -6 10 7 51 -12 62
-28 4 -4 33 4 66 19 45 21 59 32 58 47 -2 28 84 128 109 128 11 0 2 -20 -29
-66 -25 -37 -44 -72 -41 -78 2 -6 5 -4 5 5 1 8 11 25 24 36 12 12 30 33 40 47
10 14 28 31 40 37 21 12 21 11 5 -8 -21 -22 -24 -38 -6 -27 7 4 2 -7 -11 -24
-12 -18 -33 -35 -47 -38 -20 -5 -22 -9 -13 -20 15 -18 33 -18 26 0 -4 10 -1
13 9 9 9 -3 14 0 12 7 -5 22 23 23 29 1 3 -11 8 -19 12 -17 4 3 8 -13 8 -35 2
-28 -2 -39 -13 -39 -24 0 -16 -30 12 -40 35 -14 36 -13 29 10 -4 12 0 31 8 44
8 12 17 33 19 47 2 13 9 23 15 22 7 -2 10 4 7 12 -4 8 -14 15 -23 16 -9 0 -2
7 15 14 42 19 47 36 17 63 l-25 23 7 -38 c7 -41 -6 -37 -29 9 -7 12 -19 22
-27 20 -10 -1 -9 2 4 11 33 27 19 37 -30 22 -62 -19 -68 -18 -19 4 27 12 35
19 25 23 -21 8 -89 -21 -89 -39 0 -15 -45 -80 -70 -100 -8 -7 -22 -12 -32 -10
-9 1 -27 -8 -40 -20 -35 -33 -72 -39 -96 -15 -11 11 -28 25 -38 31 -17 11 -15
12 13 8 25 -3 34 1 42 20 12 27 24 29 44 8 13 -13 16 -13 21 1 4 9 13 14 21
10 10 -3 15 1 15 11 0 9 6 24 13 32 7 9 19 29 25 44 12 27 11 28 -10 22 -33
-10 -58 -35 -58 -57 0 -37 -99 -51 -168 -23 -20 9 -47 27 -59 42 -12 15 -26
24 -30 20 -4 -5 -1 -12 7 -17 17 -11 18 -10 -45 -37 -69 -30 -77 -32 -98 -21
-24 13 -10 37 73 123 39 40 71 83 75 100 3 17 13 37 20 45 16 19 36 140 22
140 -5 0 -6 8 -2 18 12 28 6 76 -13 93 -17 17 -74 39 -59 23z m42 -214 c3 -5
1 -10 -4 -10 -6 0 -11 5 -11 10 0 6 2 10 4 10 3 0 8 -4 11 -10z m-236 -82
c-13 -24 -17 -23 -14 5 4 40 5 42 14 28 6 -9 6 -22 0 -33z m-12 -114 c-3 -3
-12 -4 -19 -1 -8 3 -5 6 6 6 11 1 17 -2 13 -5z m766 -150 c13 -13 -14 -44 -38
-44 l-24 0 22 24 c24 26 30 29 40 20z m1 -95 c-6 -11 -24 -2 -24 11 0 5 7 7
15 4 8 -4 12 -10 9 -15z"/>
<path d="M1 1620 c0 -44 0 -44 14 -20 7 14 10 27 6 30 -5 3 -11 12 -14 20 -3
8 -6 -5 -6 -30z"/>
<path d="M90 1639 c0 -5 5 -7 10 -4 6 3 10 8 10 11 0 2 -4 4 -10 4 -5 0 -10
-5 -10 -11z"/>
<path d="M700 1620 c0 -28 2 -30 41 -30 37 0 40 2 37 25 -4 31 -22 34 -26 5
-5 -29 -32 -25 -32 5 0 14 -4 25 -10 25 -5 0 -10 -13 -10 -30z"/>
<path d="M880 1620 c0 -19 5 -30 14 -30 8 0 21 -3 30 -6 9 -3 16 -1 16 5 0 6
-9 11 -20 11 -15 0 -20 7 -20 25 0 14 -4 25 -10 25 -5 0 -10 -13 -10 -30z"/>
<path d="M1020 1640 c0 -5 5 -10 10 -10 6 0 10 -11 10 -25 0 -29 18 -34 26 -7
3 9 10 25 15 35 8 15 4 17 -26 17 -19 0 -35 -4 -35 -10z"/>
<path d="M1190 1615 c0 -19 5 -35 10 -35 6 0 10 16 10 35 0 19 -4 35 -10 35
-5 0 -10 -16 -10 -35z"/>
<path d="M1320 1614 c0 -25 4 -33 12 -28 16 10 58 11 58 2 0 -4 5 -8 10 -8 6
0 10 16 10 35 0 39 -13 45 -32 15 -7 -11 -16 -20 -20 -20 -4 0 -10 9 -13 20
-10 32 -25 23 -25 -16z"/>
<path d="M1520 1636 c0 -8 6 -17 13 -20 6 -3 3 -4 -7 -3 -10 1 -21 -3 -23 -10
-3 -7 3 -9 16 -6 12 3 27 0 34 -6 22 -18 27 -2 9 30 -18 30 -42 39 -42 15z"/>
<path d="M1660 1640 c0 -5 5 -10 10 -10 6 0 10 -11 10 -25 0 -14 5 -25 10 -25
6 0 10 10 10 21 0 12 8 28 18 35 15 12 13 13 -20 14 -21 0 -38 -4 -38 -10z"/>
<path d="M1820 1615 c0 -32 2 -35 30 -35 31 0 43 19 13 21 -15 0 -15 2 2 9 17
7 17 9 3 9 -10 1 -18 6 -18 12 0 6 7 9 15 5 8 -3 15 -1 15 4 0 6 -13 10 -30
10 -28 0 -30 -3 -30 -35z"/>
<path d="M561 1619 c-11 -19 -19 -21 -70 -16 l-57 5 0 -49 c0 -61 13 -67 80
-35 58 27 81 60 69 94 l-8 22 -14 -21z"/>
<path d="M638 1573 c6 -2 18 -2 25 0 6 3 1 5 -13 5 -14 0 -19 -2 -12 -5z"/>
<path d="M727 1543 c-12 -11 -8 -45 5 -41 6 2 18 14 26 26 13 20 13 22 -5 22
-11 0 -23 -3 -26 -7z"/>
<path d="M1599 1535 c-3 -2 -21 -5 -42 -7 -46 -3 -47 -13 -2 -28 28 -9 39 -9
57 4 12 9 34 16 48 16 20 0 22 2 10 10 -15 10 -63 14 -71 5z"/>
<path d="M46 1508 c10 -14 21 -24 23 -22 3 3 -6 15 -18 27 l-24 22 19 -27z"/>
<path d="M1495 1520 c3 -5 8 -10 11 -10 2 0 4 5 4 10 0 6 -5 10 -11 10 -5 0
-7 -4 -4 -10z"/>
<path d="M1917 1513 c-8 -8 1 -70 15 -95 5 -10 15 -18 23 -18 17 0 21 66 5 90
-8 13 -10 12 -10 -2 0 -10 -4 -18 -9 -18 -12 0 -23 29 -15 41 6 11 0 12 -9 2z"/>
<path d="M220 1490 c0 -5 5 -10 11 -10 5 0 7 5 4 10 -3 6 -8 10 -11 10 -2 0
-4 -4 -4 -10z"/>
<path d="M2017 1460 c14 -79 43 -95 43 -24 0 39 -2 45 -14 35 -11 -10 -17 -8
-25 6 -8 14 -9 10 -4 -17z"/>
<path d="M1508 1470 c-25 -5 -73 -16 -105 -25 -84 -25 -90 -25 -104 -9 -16 20
-46 18 -58 -4 -12 -22 -5 -32 32 -52 21 -10 27 -19 23 -35 -3 -11 -9 -30 -12
-42 -8 -30 18 -40 48 -19 18 13 23 26 23 64 l0 47 54 3 c51 3 53 2 48 -19 l-6
-21 20 21 c11 11 22 21 25 21 17 0 64 -33 64 -45 0 -8 5 -15 10 -15 6 0 10 9
10 20 0 26 26 26 40 -1 9 -15 8 -24 -1 -35 -9 -11 -8 -14 4 -14 9 0 21 -8 26
-17 9 -16 10 -15 11 5 0 13 4 20 10 17 6 -3 10 -16 10 -29 0 -12 7 -31 15 -42
8 -10 15 -32 15 -47 0 -27 1 -28 38 -21 40 8 82 31 82 45 0 5 11 7 25 3 36 -9
32 24 -6 55 l-31 24 -44 -21 c-25 -12 -52 -22 -60 -22 -26 0 -10 24 29 43 44
22 41 36 -21 77 -26 17 -45 34 -43 38 5 10 -40 32 -66 32 -14 0 -23 6 -23 15
0 16 -10 17 -82 5z"/>
<path d="M1630 1470 c-9 -6 -10 -10 -3 -10 6 0 15 5 18 10 8 12 4 12 -15 0z"/>
<path d="M1666 1466 c3 -9 11 -16 16 -16 13 0 5 23 -10 28 -7 2 -10 -2 -6 -12z"/>
<path d="M775 1445 c0 -14 4 -25 8 -25 5 0 5 -6 1 -12 -4 -7 2 -5 12 5 14 13
16 21 8 34 -16 26 -29 25 -29 -2z"/>
<path d="M1146 1455 c-3 -9 -19 -15 -38 -16 -20 -1 -25 -3 -14 -6 15 -4 16 -7
5 -14 -12 -7 -11 -9 2 -9 8 0 28 14 44 30 16 17 24 30 18 30 -6 0 -13 -7 -17
-15z"/>
<path d="M1190 1461 c0 -5 9 -7 20 -4 11 3 20 7 20 9 0 2 -9 4 -20 4 -11 0
-20 -4 -20 -9z"/>
<path d="M750 1446 c0 -8 -2 -20 -5 -28 -3 -7 1 -22 9 -33 14 -19 15 -17 14
23 -1 24 -5 45 -10 48 -4 3 -8 -1 -8 -10z"/>
<path d="M695 1439 c-4 -6 -1 -15 6 -20 21 -13 31 -11 27 8 -4 20 -24 28 -33
12z"/>
<path d="M651 1404 l-24 -17 28 -14 c33 -18 36 -15 27 20 -7 27 -8 27 -31 11z"/>
<path d="M1030 1366 c49 -51 58 -55 66 -28 3 9 10 25 15 35 8 15 4 17 -37 17
-25 0 -55 5 -67 11 -13 7 -3 -8 23 -35z"/>
<path d="M950 1365 c-13 -33 -12 -42 4 -86 12 -35 12 -36 -8 -31 -19 4 -20 3
-6 -12 15 -15 19 -15 58 4 24 12 46 28 49 36 8 22 -15 60 -54 90 l-33 25 -10
-26z"/>
<path d="M1965 1370 c-10 -15 14 -50 34 -50 28 0 46 26 31 45 -14 17 -56 20
-65 5z"/>
<path d="M798 1362 c-23 -4 -23 -18 -2 -26 20 -8 27 -3 22 16 -1 7 -11 12 -20
10z"/>
<path d="M2167 1343 c2 -16 -3 -50 -11 -76 -17 -57 -15 -67 21 -89 14 -8 31
-31 37 -49 12 -37 46 -53 46 -22 0 11 -5 24 -12 31 -10 10 -7 16 10 28 21 14
22 41 2 29 -5 -3 -3 13 5 36 19 54 19 59 -5 59 -14 0 -20 -7 -21 -22 -1 -21
-1 -22 -7 -3 -10 29 -55 105 -62 105 -4 0 -5 -12 -3 -27z"/>
<path d="M1220 1345 c-10 -12 -10 -21 -2 -38 10 -21 11 -21 11 6 1 16 5 26 11
22 6 -4 8 -10 6 -14 -3 -4 4 -8 15 -8 21 -2 25 17 7 35 -16 16 -33 15 -48 -3z"/>
<path d="M1470 1316 c0 -27 25 -42 34 -20 8 20 -3 44 -20 44 -8 0 -14 -10 -14
-24z"/>
<path d="M913 1285 c0 -22 2 -30 4 -17 2 12 2 30 0 40 -3 9 -5 -1 -4 -23z"/>
<path d="M1148 1293 c-27 -7 -22 -20 28 -79 50 -58 56 -84 9 -34 -16 17 -37
30 -46 30 -10 0 -21 5 -24 10 -10 16 -34 12 -58 -10 -17 -16 -19 -24 -11 -38
9 -13 7 -23 -5 -42 -15 -23 -15 -24 3 -17 17 7 18 6 3 -16 -9 -13 -19 -41 -23
-62 -4 -21 -20 -59 -36 -85 -17 -28 -33 -71 -39 -110 -12 -74 -14 -80 -37 -81
-12 0 -10 -3 6 -10 13 -5 28 -7 32 -4 5 3 11 1 14 -4 3 -5 -6 -12 -20 -15 -19
-5 -24 -11 -19 -26 5 -16 3 -19 -12 -14 -14 5 -14 2 5 -14 26 -24 28 -35 7
-52 -13 -11 -20 -10 -41 1 -21 11 -27 11 -33 0 -6 -9 -10 -5 -15 13 -3 14 -15
30 -26 36 -24 13 -61 92 -67 145 -7 58 -63 103 -63 50 0 -18 4 -23 15 -19 9 4
15 0 15 -9 0 -9 3 -23 7 -33 4 -11 3 -15 -4 -11 -16 10 -4 -36 13 -49 12 -10
12 -13 0 -23 -11 -9 -20 -7 -41 14 -16 14 -33 25 -38 25 -27 0 -99 -45 -112
-69 -7 -15 -20 -33 -29 -40 -8 -7 -13 -18 -10 -25 2 -6 -2 -20 -11 -31 -12
-16 -14 -17 -9 -2 4 10 1 17 -6 17 -6 0 -8 5 -5 10 3 6 1 10 -4 10 -12 0 -10
-27 2 -48 5 -7 12 -10 17 -7 5 3 13 -2 18 -11 8 -15 10 -15 15 0 4 9 2 16 -4
16 -6 0 -6 7 1 20 9 16 15 18 30 10 16 -9 18 -8 14 5 -9 22 19 15 28 -7 4 -10
17 -18 28 -18 20 0 20 1 3 26 l-17 27 24 -13 24 -13 -18 29 c-19 28 -19 29 0
13 10 -9 36 -23 57 -33 41 -19 48 -35 18 -43 -20 -5 -18 -30 3 -46 7 -5 2 -7
-11 -4 -15 3 -20 1 -16 -9 3 -9 -1 -14 -12 -14 -9 0 -14 4 -10 10 7 12 -45 38
-67 33 -33 -8 -18 -23 21 -23 35 0 39 -3 36 -20 -5 -24 13 -80 26 -80 5 0 9 5
9 10 0 6 4 10 9 10 5 0 4 -10 -2 -22 -9 -19 -18 -23 -61 -23 -28 0 -59 -4 -69
-7 -17 -7 -17 -9 -1 -33 19 -29 39 -32 54 -7 10 15 10 15 8 -3 -5 -29 -53 -33
-68 -5 -6 12 -14 19 -17 16 -3 -3 -14 -1 -24 5 -17 9 -19 6 -19 -24 0 -32 -5
-37 -81 -81 -59 -35 -84 -56 -92 -77 -15 -38 -25 -37 -32 5 -9 46 -1 66 40 97
l35 26 -30 6 c-38 8 -38 22 -1 35 41 14 62 50 53 86 l-8 29 -17 -27 c-23 -34
-74 -66 -106 -66 -25 0 -25 0 7 31 41 41 44 94 7 129 -13 12 -22 27 -19 32 3
5 -3 12 -15 15 -12 3 -21 12 -21 19 0 21 -32 17 -64 -10 -28 -21 -30 -28 -30
-90 l-1 -67 -22 26 c-31 35 -31 106 0 160 21 38 69 71 129 89 23 7 23 7 -4 18
-17 6 -28 17 -28 28 0 10 -9 22 -20 25 -28 9 -70 49 -70 67 0 22 -37 66 -71
83 -27 15 -29 14 -29 -5 0 -13 9 -22 25 -26 27 -7 55 -39 55 -63 0 -10 -10
-12 -40 -8 -30 4 -40 2 -40 -9 0 -8 7 -14 17 -14 15 0 15 -1 0 -18 -15 -17
-17 -59 -17 -405 l0 -387 240 0 240 0 6 28 c3 15 8 35 11 45 3 12 -2 17 -17
17 -12 0 -18 5 -15 10 7 12 82 14 89 2 2 -4 -9 -28 -25 -52 l-30 -45 66 -3
c73 -3 86 3 105 48 11 27 45 49 57 37 3 -3 -2 -16 -11 -29 -30 -43 -22 -58 34
-58 28 0 51 5 51 10 1 6 2 15 3 21 0 7 13 13 28 15 21 2 28 -3 32 -22 4 -13
13 -24 22 -24 11 0 14 6 10 23 l-6 22 11 -22 c9 -17 21 -23 46 -23 l33 0 0 59
c0 39 5 63 14 70 12 10 17 6 25 -26 6 -21 11 -53 11 -70 0 -31 2 -33 34 -33
32 0 34 2 39 41 3 22 8 44 12 47 4 4 31 6 61 5 40 -1 60 3 73 15 10 9 26 22
36 28 17 9 18 14 5 44 -13 31 -12 34 9 51 13 11 26 17 31 14 10 -6 -4 -91 -19
-109 -8 -10 -9 -16 -1 -21 6 -3 7 -12 3 -18 -4 -7 0 -6 10 2 10 8 24 10 34 6
10 -5 22 -7 27 -6 10 2 46 -29 46 -41 0 -4 -7 -8 -15 -8 -8 0 -15 -6 -15 -13
0 -15 -37 -20 -45 -6 -4 5 -1 9 5 9 6 0 3 11 -7 24 -17 23 -33 26 -33 6 0 -5
12 -22 26 -39 20 -25 34 -31 63 -31 l38 0 32 80 c27 69 31 91 29 154 -3 67 -5
72 -23 69 -13 -2 -15 -1 -5 3 8 4 23 11 33 16 16 8 18 6 12 -29 l-6 -38 53 55
c29 31 73 71 98 90 61 47 62 50 32 85 l-27 30 -50 -52 c-56 -59 -85 -63 -104
-14 -6 14 -27 55 -47 91 -32 56 -38 75 -40 137 -3 71 -30 153 -55 168 -10 7
-31 49 -34 70 -1 6 6 18 14 29 15 18 15 18 -9 12 -14 -3 -19 -3 -12 0 15 7 6
24 -13 24 -10 0 -11 -9 -3 -42 5 -24 13 -44 19 -46 5 -2 9 -16 9 -32 0 -15 6
-33 14 -39 16 -14 30 -93 21 -121 -6 -17 -8 -18 -21 -6 -8 8 -11 21 -8 30 9
24 -15 84 -43 106 -14 11 -38 20 -54 20 -15 0 -31 5 -34 10 -4 6 12 10 42 10
42 1 46 2 28 13 -11 7 -21 21 -23 32 -2 11 -6 34 -9 52 -4 24 -12 34 -33 42
-33 11 -89 1 -126 -24 -15 -9 -23 -12 -20 -6 4 6 25 20 46 31 50 26 120 26
151 1 17 -13 30 -16 45 -11 17 7 21 5 20 -7 0 -9 4 -18 11 -20 18 -6 -3 69
-23 84 -22 16 -1 18 27 3 19 -10 19 -10 -1 40 -28 71 -58 127 -71 136 -8 4 -9
3 -5 -4 4 -7 3 -12 -3 -12 -5 0 -12 9 -16 19 -3 11 -11 21 -18 24 -67 28 -84
33 -99 30z m-1053 -493 c-4 -6 -2 -17 4 -24 8 -10 7 -17 -4 -26 -8 -7 -15 -9
-15 -4 0 5 -7 0 -15 -11 -13 -17 -17 -17 -30 -4 -13 13 -12 18 8 47 12 17 30
32 40 32 10 0 15 -5 12 -10z m1190 -71 c49 -13 75 -35 75 -63 -1 -18 -2 -19
-10 -5 -19 33 -63 52 -112 50 -38 -2 -48 1 -48 14 0 18 37 20 95 4z m-205 -23
c0 -3 -4 -8 -10 -11 -5 -3 -10 -1 -10 4 0 6 5 11 10 11 6 0 10 -2 10 -4z
m-325 -43 c14 -33 18 -36 26 -20 6 9 14 17 20 17 5 0 3 -10 -6 -23 -15 -23
-13 -55 4 -92 5 -11 12 -29 16 -40 5 -16 8 -17 15 -5 6 9 10 10 10 3 0 -6 -5
-15 -11 -18 -7 -5 -4 -14 8 -27 18 -20 18 -21 -7 -13 -22 7 -23 6 -11 -9 19
-23 -1 -20 -33 5 -33 26 -60 75 -46 84 15 9 12 28 -3 22 -8 -3 -20 -1 -28 4
-11 7 -9 9 9 9 18 0 22 6 22 28 0 16 -3 32 -7 35 -7 8 -12 58 -6 70 7 13 13 8
28 -30z m225 -103 c0 -5 -5 -10 -11 -10 -5 0 -7 -5 -4 -10 4 -6 10 -8 15 -5 5
3 11 1 15 -5 4 -6 -17 -10 -57 -10 -58 0 -61 1 -41 15 41 29 83 41 83 25z
m209 -61 c-12 -10 -31 -19 -41 -19 -15 0 -18 -5 -13 -19 8 -25 -9 -35 -25 -16
-7 8 -21 15 -31 15 -37 0 -18 20 34 35 28 8 59 19 67 24 25 16 32 0 9 -20z
m-522 -21 c-3 -8 -6 -5 -6 6 -1 11 2 17 5 13 3 -3 4 -12 1 -19z m53 3 c0 -11
3 -28 6 -38 5 -13 -1 -10 -22 10 -24 23 -27 29 -14 37 22 14 30 12 30 -9z
m320 9 c-8 -5 -19 -10 -25 -10 -5 0 -3 5 5 10 8 5 20 10 25 10 6 0 3 -5 -5
-10z m637 -47 c-5 -12 -14 -23 -19 -23 -11 0 -10 17 2 25 6 3 10 16 10 28 0
17 2 19 9 8 6 -9 5 -23 -2 -38z m-727 27 c20 -7 15 -8 -22 -7 -26 0 -45 4 -42
9 6 10 30 9 64 -2z m-232 -65 c-3 -3 -9 2 -12 12 -6 14 -5 15 5 6 7 -7 10 -15
7 -18z m406 -83 c-6 -13 -9 -11 -13 13 -4 17 -2 33 4 37 12 9 19 -27 9 -50z
m-480 13 c5 -22 4 -26 -4 -15 -5 8 -10 24 -10 34 0 26 6 18 14 -19z m-517 -61
c-57 -35 -92 -40 -81 -9 3 8 18 15 33 15 19 0 22 3 12 9 -14 9 4 14 74 19 11
1 -6 -14 -38 -34z m513 25 c12 -8 9 -9 -9 -4 l-24 7 31 -53 c44 -77 91 -108
167 -109 39 0 70 6 85 16 l25 16 -24 -21 c-16 -14 -37 -21 -66 -21 -24 0 -50
-2 -58 -6 -22 -8 -98 55 -139 116 -21 30 -38 58 -38 63 0 11 33 8 50 -4z
m-144 -75 c-3 -8 -9 -13 -13 -13 -15 3 -73 -23 -73 -32 0 -5 -4 -9 -9 -9 -29
0 19 69 64 93 28 15 30 14 33 -5 2 -10 1 -26 -2 -34z m974 24 c0 -7 -4 -19 -9
-26 -7 -11 -10 -10 -15 3 -10 26 -7 35 9 35 8 0 15 -6 15 -12z m-1315 -27 c-3
-6 -16 -16 -28 -22 -21 -11 -21 -10 2 15 23 25 40 29 26 7z m669 -37 c10 -27
7 -34 -19 -34 -23 0 -24 2 -13 25 13 29 23 32 32 9z m271 -14 c-3 -5 -12 -10
-18 -10 -7 0 -6 4 3 10 19 12 23 12 15 0z"/>
<path d="M805 170 c-3 -5 -1 -10 4 -10 6 0 11 5 11 10 0 6 -2 10 -4 10 -3 0
-8 -4 -11 -10z"/>
<path d="M1426 1274 c-10 -26 17 -96 47 -117 15 -12 27 -24 27 -28 0 -10 -63
11 -71 23 -3 5 -11 3 -17 -5 -13 -16 -4 -26 63 -69 38 -24 42 -24 64 -9 39 25
89 24 106 -3 11 -17 22 -22 39 -19 17 4 36 -4 60 -23 19 -16 34 -30 32 -31 -2
-2 -26 5 -55 16 -43 17 -51 18 -51 6 0 -8 -6 -15 -12 -15 -20 -1 23 -30 44
-30 31 0 87 -34 88 -53 0 -11 5 -15 11 -11 6 3 9 14 6 24 -3 12 3 22 19 29 20
9 25 7 35 -10 6 -11 8 -28 5 -36 -6 -14 -8 -14 -25 1 -17 15 -18 15 -29 -9
-10 -21 -9 -25 3 -25 8 0 15 -4 15 -10 0 -5 -4 -10 -10 -10 -5 0 -10 -5 -10
-12 0 -6 8 -4 19 6 18 16 32 16 95 -1 12 -3 16 -1 12 6 -5 7 -1 8 10 4 12 -4
15 -3 10 5 -4 7 -13 12 -19 12 -11 0 -67 62 -67 74 0 4 12 6 26 6 14 0 34 5
45 10 14 8 26 6 46 -7 16 -9 29 -17 29 -17 1 -1 5 -11 8 -23 5 -15 3 -23 -4
-23 -6 0 -25 -13 -43 -30 l-32 -30 26 0 c42 0 89 -12 89 -22 0 -6 -20 -7 -52
-3 -29 4 -50 4 -46 0 4 -4 24 -9 45 -12 46 -6 44 -4 36 -32 -5 -20 -10 -22
-47 -16 l-41 6 27 -21 c15 -12 36 -46 48 -77 12 -32 30 -63 41 -71 11 -7 17
-17 14 -22 -5 -8 24 -30 39 -30 3 0 3 18 0 40 -6 52 2 64 26 40 25 -25 25 -30
3 -31 -11 0 -13 -3 -5 -6 6 -2 12 -16 12 -31 0 -33 17 -17 22 21 4 39 22 34
26 -7 2 -27 10 -37 34 -49 31 -15 32 -14 58 13 33 35 71 46 116 32 32 -9 34
-9 34 13 0 13 2 30 6 38 3 9 -5 18 -23 26 -45 19 -61 35 -68 67 -6 26 -5 27 8
12 16 -20 78 -48 104 -48 10 1 32 12 48 25 l30 25 3 232 4 233 -24 -23 c-14
-12 -28 -19 -31 -15 -4 3 -7 1 -7 -5 0 -7 -7 -12 -16 -12 -14 0 -15 -7 -10
-41 4 -23 15 -61 26 -85 23 -49 18 -83 -9 -62 -14 12 -14 11 -3 -4 8 -9 11
-22 7 -28 -4 -6 5 -10 21 -10 22 0 25 2 14 15 -7 9 -8 15 -2 15 8 0 22 -22 22
-35 0 -7 -184 0 -195 7 -6 3 -36 8 -66 9 -45 2 -62 -2 -84 -19 -15 -12 -32
-22 -36 -22 -5 0 -9 -7 -9 -15 0 -21 -21 -28 -51 -16 -20 8 -21 10 -5 10 19 1
19 2 -2 21 -27 25 -30 85 -6 119 14 19 14 25 3 32 -21 13 -24 12 -36 -21 -14
-37 -36 -38 -68 -4 -22 24 -25 25 -25 8 -1 -15 -9 -9 -38 24 -42 48 -52 51
-52 20 0 -17 -3 -19 -12 -10 -17 17 -38 15 -38 -4 0 -21 -48 -11 -71 15 -8 10
-25 21 -36 25 -16 5 -21 14 -19 38 0 20 -4 32 -14 35 -12 4 -13 3 -1 -5 7 -5
10 -15 7 -21 -9 -14 -66 -15 -66 -1 0 6 -13 10 -29 10 -31 0 -81 40 -81 65 0
13 -72 95 -84 95 -2 0 -7 -7 -10 -16z m124 -174 c0 -5 -7 -10 -15 -10 -8 0
-15 5 -15 10 0 6 7 10 15 10 8 0 15 -4 15 -10z m303 -97 c-7 -2 -19 -2 -25 0
-7 3 -2 5 12 5 14 0 19 -2 13 -5z m62 -1 c-3 -3 1 -12 8 -20 10 -13 9 -14 -10
-3 -26 13 -30 28 -8 28 8 0 13 -3 10 -5z m-20 -112 c3 -5 -1 -10 -9 -10 -9 0
-16 5 -16 10 0 6 4 10 9 10 6 0 13 -4 16 -10z m130 -38 c-3 -3 -11 0 -18 7 -9
10 -8 11 6 5 10 -3 15 -9 12 -12z m480 -2 c3 -5 2 -10 -4 -10 -5 0 -13 5 -16
10 -3 6 -2 10 4 10 5 0 13 -4 16 -10z m-195 -50 c0 -5 -12 -10 -26 -10 -14 0
-23 4 -19 10 3 6 15 10 26 10 10 0 19 -4 19 -10z m50 -30 c0 -5 -7 -10 -16
-10 -8 0 -12 5 -9 10 3 6 10 10 16 10 5 0 9 -4 9 -10z m-75 -31 c-4 -5 -14 -5
-26 1 -11 6 -17 15 -14 21 4 5 14 5 26 -1 11 -6 17 -15 14 -21z m50 -36 c4
-21 20 -57 36 -80 30 -46 24 -60 -9 -18 -11 13 -22 22 -24 19 -11 -10 -31 29
-34 67 -7 70 18 79 31 12z m202 25 c-3 -8 -6 -5 -6 6 -1 11 2 17 5 13 3 -3 4
-12 1 -19z m-282 -18 c3 -6 -1 -7 -9 -4 -18 7 -21 14 -7 14 6 0 13 -4 16 -10z
m35 -66 c0 -8 -4 -12 -10 -9 -5 3 -10 10 -10 16 0 5 5 9 10 9 6 0 10 -7 10
-16z m-50 -4 c0 -5 -2 -10 -4 -10 -3 0 -8 5 -11 10 -3 6 -1 10 4 10 6 0 11 -4
11 -10z"/>
<path d="M330 1256 c0 -29 24 -40 41 -19 11 13 10 17 -6 29 -27 20 -35 17 -35
-10z m40 -6 c0 -5 -2 -10 -4 -10 -3 0 -8 5 -11 10 -3 6 -1 10 4 10 6 0 11 -4
11 -10z"/>
<path d="M754 1255 c2 -16 48 -45 70 -45 6 0 20 8 31 16 20 15 20 15 1 30 -23
17 -40 19 -30 3 4 -8 -1 -9 -17 -4 -13 3 -32 9 -41 11 -11 3 -16 -1 -14 -11z"/>
<path d="M501 1251 c-19 -12 -6 -41 18 -41 20 0 31 17 24 38 -5 14 -22 15 -42
3z m19 -11 c0 -5 -5 -10 -11 -10 -5 0 -7 5 -4 10 3 6 8 10 11 10 2 0 4 -4 4
-10z"/>
<path d="M1940 1235 c-10 -26 -6 -46 18 -83 11 -17 18 -20 28 -11 21 17 17 26
-12 33 -24 6 -26 10 -20 46 7 45 0 52 -14 15z"/>
<path d="M1647 1223 c-12 -11 -8 -41 6 -46 10 -4 12 3 9 24 -5 31 -5 32 -15
22z"/>
<path d="M1974 1205 c11 -8 25 -15 30 -15 6 0 2 7 -8 15 -11 8 -25 15 -30 15
-6 0 -2 -7 8 -15z"/>
<path d="M2085 1192 c-3 -3 -5 -19 -5 -36 0 -24 3 -27 10 -16 6 10 10 11 10 3
0 -7 -8 -21 -18 -31 -37 -37 11 -96 87 -108 40 -6 43 -8 26 -20 -15 -11 -17
-18 -7 -38 l11 -25 44 16 c34 13 42 19 33 29 -6 6 -12 8 -14 3 -2 -5 -8 -9
-14 -9 -6 0 -8 12 -4 31 3 17 1 40 -5 51 -10 19 -11 19 -24 2 -11 -16 -14 -12
-24 36 -13 62 -49 113 -80 115 -12 1 -23 -1 -26 -3z"/>
<path d="M947 1183 c-12 -3 -16 -10 -13 -20 4 -11 2 -13 -9 -9 -9 3 -15 0 -15
-9 0 -8 6 -15 13 -15 9 0 9 -2 0 -8 -16 -10 -13 -242 2 -242 18 1 112 210 94
210 -5 0 -9 19 -9 41 0 37 -2 40 -16 28 -13 -11 -15 -10 -12 6 3 20 -7 25 -35
18z m12 -96 c-2 -1 -13 -9 -24 -17 -19 -14 -19 -14 -6 3 7 9 18 17 24 17 6 0
8 -1 6 -3z"/>
<path d="M1885 1159 c-4 -5 -19 -9 -34 -9 -43 0 -54 -21 -24 -43 24 -18 24
-18 21 0 -2 12 2 17 14 15 9 -1 19 2 23 8 3 5 17 7 30 4 20 -5 44 10 33 21 -9
9 -58 13 -63 4z"/>
<path d="M1753 1098 c-2 -18 0 -20 7 -8 12 18 13 30 2 30 -4 0 -9 -10 -9 -22z"/>
<path d="M2442 1095 c6 -14 13 -23 16 -21 7 7 -9 46 -18 46 -5 0 -4 -11 2 -25z"/>
<path d="M2330 1055 c0 -8 4 -15 9 -15 5 0 11 7 15 15 3 9 0 15 -9 15 -8 0
-15 -7 -15 -15z"/>
<path d="M1445 1050 c3 -5 11 -10 16 -10 6 0 7 5 4 10 -3 6 -11 10 -16 10 -6
0 -7 -4 -4 -10z"/>
<path d="M2250 1042 c0 -4 41 -42 45 -42 1 0 0 11 -2 24 -4 17 -11 24 -24 23
-10 -1 -19 -3 -19 -5z"/>
<path d="M2430 1008 c-19 -22 -40 -46 -47 -53 -7 -7 -9 -15 -6 -19 14 -13 35
-4 67 28 26 26 33 39 29 60 -3 14 -6 26 -7 25 0 0 -17 -19 -36 -41z"/>
<path d="M1379 1018 c-2 -37 1 -48 19 -69 9 -11 20 -32 23 -47 4 -17 7 -3 8
41 1 53 -2 67 -14 67 -8 0 -15 5 -15 11 0 6 7 8 16 5 8 -3 12 -2 9 4 -12 20
-45 11 -46 -12z"/>
<path d="M1561 994 c0 -11 3 -14 6 -6 3 7 2 16 -1 19 -3 4 -6 -2 -5 -13z"/>
<path d="M615 968 c-57 -19 -78 -33 -82 -56 -5 -39 -72 -100 -125 -114 -26 -6
-48 -15 -48 -19 0 -4 9 -5 19 -2 13 3 29 -4 46 -22 22 -21 26 -33 23 -66 -3
-30 0 -39 12 -39 33 0 54 26 56 71 1 24 2 52 3 61 1 10 17 35 36 56 19 22 32
42 28 45 -3 4 11 27 31 52 21 25 36 45 34 44 -2 -1 -16 -6 -33 -11z"/>
<path d="M2300 960 c0 -11 5 -20 12 -20 6 0 20 -7 30 -17 17 -15 18 -15 18 0
0 10 -5 17 -11 17 -5 0 -8 4 -5 9 3 4 -6 13 -19 19 -22 10 -25 9 -25 -8z"/>
<path d="M636 936 c-21 -32 -22 -64 -2 -47 14 12 30 60 23 67 -2 3 -12 -7 -21
-20z"/>
<path d="M253 937 c-3 -6 -1 -7 5 -3 6 4 12 -4 14 -21 2 -17 10 -29 21 -31 15
-3 18 2 15 30 -2 26 -8 33 -26 34 -12 1 -25 -3 -29 -9z"/>
<path d="M407 944 c-4 -4 -7 -20 -7 -36 0 -23 4 -29 18 -26 11 2 17 13 17 32
0 29 -14 43 -28 30z"/>
<path d="M1650 944 c-8 -3 -25 -21 -38 -40 -21 -31 -27 -35 -53 -30 -22 4 -29
2 -29 -10 0 -8 4 -12 10 -9 10 6 3 -22 -10 -40 -4 -5 -10 -27 -12 -47 -3 -31
0 -39 15 -44 10 -3 24 -1 30 5 8 8 7 11 -5 11 -33 0 -28 31 14 75 24 25 45 45
49 45 3 0 24 -11 45 -25 l39 -25 -40 35 c-32 29 -37 38 -25 45 21 13 40 12 60
-2 9 -7 4 -1 -11 13 -20 20 -24 30 -16 38 11 11 5 12 -23 5z"/>
<path d="M827 884 c-15 -13 -36 -24 -45 -24 -12 -1 -10 -4 8 -14 25 -14 45
-12 35 4 -3 5 4 18 17 29 31 30 18 34 -15 5z"/>
<path d="M655 880 c3 -5 8 -10 11 -10 2 0 4 5 4 10 0 6 -5 10 -11 10 -5 0 -7
-4 -4 -10z"/>
<path d="M750 879 c0 -5 5 -7 10 -4 6 3 10 8 10 11 0 2 -4 4 -10 4 -5 0 -10
-5 -10 -11z"/>
<path d="M325 870 c-3 -5 -1 -10 4 -10 6 0 11 5 11 10 0 6 -2 10 -4 10 -3 0
-8 -4 -11 -10z"/>
<path d="M1442 869 c2 -7 10 -15 17 -17 8 -3 12 1 9 9 -2 7 -10 15 -17 17 -8
3 -12 -1 -9 -9z"/>
<path d="M1484 849 c-3 -6 -15 -9 -25 -6 -23 6 -24 -2 -5 -37 15 -30 30 -20
38 27 6 29 3 34 -8 16z"/>
<path d="M317 838 c2 -5 15 -8 29 -8 13 0 24 3 24 8 0 4 -13 7 -29 7 -16 0
-27 -3 -24 -7z"/>
<path d="M855 837 c-12 -9 -14 -16 -7 -21 6 -3 16 3 22 14 13 24 10 25 -15 7z"/>
<path d="M1919 829 c-9 -4 -24 -20 -33 -34 -16 -24 -16 -25 3 -25 13 0 18 5
15 14 -3 8 5 21 17 30 25 17 23 30 -2 15z"/>
<path d="M818 788 c6 -6 18 -8 28 -6 14 3 12 5 -9 10 -19 3 -25 2 -19 -4z"/>
<path d="M1479 775 c-9 -8 3 -75 13 -75 5 0 6 16 2 38 -7 41 -9 44 -15 37z"/>
<path d="M840 740 c20 -13 43 -13 35 0 -3 6 -16 10 -28 10 -18 0 -19 -2 -7
-10z"/>
<path d="M1893 730 c-4 -14 -16 -20 -47 -23 -35 -3 -33 -4 16 -5 31 -1 64 -5
74 -9 11 -4 15 -3 11 4 -4 6 -1 13 7 16 9 4 12 0 9 -12 -5 -20 22 -37 33 -20
8 14 -27 51 -43 45 -7 -3 -13 -2 -13 3 0 5 -9 11 -21 14 -15 4 -23 0 -26 -13z"/>
<path d="M392 733 c-10 -4 -10 -8 -1 -19 9 -11 8 -18 -3 -32 -9 -9 -19 -27
-22 -39 -9 -29 13 -41 31 -17 13 18 14 17 8 -11 -5 -29 -5 -29 5 -5 7 14 10
42 8 63 -2 20 0 37 4 37 5 0 8 7 8 15 0 15 -14 18 -38 8z"/>
<path d="M800 710 c0 -13 11 -13 30 0 12 8 11 10 -7 10 -13 0 -23 -4 -23 -10z"/>
<path d="M1514 709 c-3 -6 0 -15 7 -20 10 -6 11 -9 2 -9 -7 0 -13 -7 -13 -15
0 -26 31 -14 43 17 8 21 -27 45 -39 27z"/>
<path d="M295 700 c-7 -12 2 -30 16 -30 5 0 9 9 9 20 0 21 -15 27 -25 10z"/>
<path d="M855 700 c-3 -6 1 -7 9 -4 18 7 21 14 7 14 -6 0 -13 -4 -16 -10z"/>
<path d="M870 675 c0 -17 22 -45 35 -45 8 0 15 3 15 8 -1 9 -50 46 -50 37z"/>
<path d="M1615 670 c3 -5 12 -10 20 -10 8 0 17 5 20 10 4 6 -5 10 -20 10 -15
0 -24 -4 -20 -10z"/>
<path d="M1870 676 c0 -2 8 -10 18 -17 15 -13 16 -12 3 4 -13 16 -21 21 -21
13z"/>
<path d="M1770 650 c-11 -11 -20 -26 -20 -34 0 -13 87 -53 96 -43 3 2 -13 12
-36 21 -22 9 -40 18 -40 22 0 19 24 44 43 43 12 0 16 -3 9 -6 -9 -4 -8 -12 5
-34 16 -27 18 -27 35 -12 16 14 18 14 18 0 0 -8 -3 -17 -7 -20 -10 -5 5 -2 34
7 18 6 25 2 32 -16 19 -51 65 -61 80 -17 3 9 -1 8 -13 -4 -21 -20 -28 -21 -44
-5 -18 18 -15 49 3 42 8 -4 12 -10 9 -15 -3 -5 2 -9 10 -9 9 0 16 7 16 16 0
14 3 14 15 4 19 -16 20 0 1 25 -12 17 -17 18 -40 7 -40 -18 -56 -15 -106 18
-53 35 -73 37 -100 10z"/>
<path d="M1714 649 c-3 -6 -2 -15 3 -20 5 -5 9 -1 9 11 0 23 -2 24 -12 9z"/>
<path d="M208 633 c7 -3 16 -2 19 1 4 3 -2 6 -13 5 -11 0 -14 -3 -6 -6z"/>
<path d="M2526 616 c3 -8 -3 -23 -15 -35 l-20 -20 27 -27 c15 -15 21 -24 14
-20 -7 4 -19 2 -27 -4 -8 -6 -18 -9 -23 -6 -5 3 -31 7 -57 10 -51 5 -70 -6
-94 -52 -11 -20 -10 -27 4 -42 10 -11 20 -19 24 -18 30 3 37 -4 37 -36 l-1
-35 -26 25 c-14 13 -30 24 -37 24 -6 0 -19 11 -28 25 -9 14 -22 25 -30 25 -7
0 -17 8 -23 18 -8 14 -13 15 -30 4 -14 -8 -21 -9 -21 -1 0 6 -13 1 -29 -10
-16 -12 -34 -21 -40 -21 -18 0 -13 -61 6 -75 17 -13 101 -9 117 5 4 5 11 22
15 40 l6 31 38 -50 c51 -67 74 -129 82 -227 9 -101 0 -110 -59 -56 -24 23 -62
50 -85 61 -51 27 -85 87 -76 134 7 31 6 31 -9 12 -19 -24 -20 -47 -4 -63 16
-16 2 -28 -16 -12 -13 10 -20 8 -43 -10 -15 -11 -39 -20 -53 -19 -14 1 -37 -1
-52 -6 l-28 -7 20 -28 c19 -27 18 -40 -5 -40 -6 0 -27 20 -45 45 -19 26 -40
43 -47 41 -7 -3 -25 -1 -39 4 -22 9 -24 13 -13 26 9 11 14 12 19 3 6 -8 9 -8
14 0 4 6 18 11 31 11 13 0 29 8 34 18 10 16 12 16 25 0 18 -24 30 -23 23 2 -3
13 1 24 13 30 29 16 37 12 44 -20 8 -44 25 -37 23 10 -2 48 15 56 28 13 11
-38 18 -40 45 -13 26 26 25 38 -2 42 -15 2 -26 13 -32 33 -18 60 -19 62 -23
43 -3 -10 -10 -15 -19 -11 -8 3 -14 1 -14 -5 0 -5 -18 -14 -40 -20 -25 -6 -40
-6 -40 0 0 5 -5 6 -11 3 -6 -4 -8 -14 -5 -22 3 -8 2 -11 -3 -8 -6 3 -12 -9
-14 -27 -2 -21 -4 -12 -5 24 -2 49 1 58 18 63 11 3 20 13 20 20 0 8 21 23 46
34 44 20 71 20 59 0 -4 -5 -3 -14 0 -19 10 -17 35 8 35 35 0 28 -38 65 -49 47
-4 -7 -38 -21 -76 -32 -54 -15 -71 -17 -78 -7 -5 7 -6 -11 -3 -45 6 -59 2 -65
-36 -59 -15 2 -8 -17 8 -23 10 -4 13 -2 8 6 -4 7 -3 8 4 4 7 -4 12 -24 12 -45
0 -38 -1 -39 -46 -46 -26 -3 -56 -11 -68 -16 l-21 -9 21 3 c29 3 31 -17 2 -24
l-23 -5 22 -14 c17 -11 19 -18 12 -36 -7 -19 -1 -31 27 -65 19 -23 38 -55 41
-70 5 -27 8 -28 54 -25 26 2 52 7 58 10 5 4 12 2 16 -4 3 -5 24 -10 47 -10 33
0 39 3 34 16 -3 9 -8 28 -11 42 -3 15 2 8 11 -16 l16 -42 234 0 234 0 0 75 c0
71 -1 76 -25 85 -14 5 -25 12 -25 15 0 2 11 0 25 -5 l25 -10 0 235 c0 227 -1
235 -20 235 -13 0 -17 -5 -14 -14z m-118 -157 c-3 -8 -7 -3 -11 10 -4 17 -3
21 5 13 5 -5 8 -16 6 -23z m-443 -367 c-6 -4 -23 -18 -39 -32 -27 -24 -28 -24
-17 -3 6 12 19 27 29 32 20 12 41 15 27 3z m70 -12 c3 -5 2 -10 -4 -10 -6 0
-8 -6 -5 -14 3 -7 -2 -16 -11 -20 -10 -3 -13 -11 -9 -18 6 -10 3 -9 -9 0 -9 8
-20 11 -25 8 -15 -9 -62 -15 -62 -7 0 12 43 49 70 60 33 13 47 13 55 1z"/>
<path d="M2000 70 c-8 -5 -10 -10 -5 -10 6 0 3 -5 -5 -10 -8 -5 -10 -10 -5
-10 14 0 30 13 33 28 2 14 1 15 -18 2z"/>
<path d="M662 606 c7 -8 16 -12 21 -9 11 7 -2 23 -19 23 -12 0 -12 -2 -2 -14z"/>
<path d="M1530 602 c0 -13 40 -72 49 -72 19 0 31 26 18 41 -14 18 -67 42 -67
31z"/>
<path d="M1697 567 c-11 -29 -9 -43 4 -30 6 6 9 19 7 29 -3 18 -4 18 -11 1z"/>
<path d="M1807 549 c7 -7 15 -10 18 -7 3 3 -2 9 -12 12 -14 6 -15 5 -6 -5z"/>
<path d="M512 523 c1 -10 -1 -30 -5 -45 -6 -22 -4 -26 8 -22 8 4 15 12 15 20
0 17 12 18 28 2 9 -9 12 -7 12 9 0 12 -10 29 -22 37 -29 21 -37 20 -36 -1z"/>
<path d="M1615 483 c-35 -44 -36 -46 -6 -18 29 26 58 65 48 65 -1 0 -20 -21
-42 -47z"/>
<path d="M600 495 c0 -16 16 -20 24 -6 3 5 -1 11 -9 15 -9 3 -15 0 -15 -9z"/>
<path d="M1765 404 c-16 -14 -31 -20 -33 -15 -6 18 -30 12 -37 -9 -3 -11 -18
-26 -33 -33 -15 -7 -26 -19 -24 -26 3 -16 -17 -43 -28 -36 -10 6 -42 -36 -35
-44 3 -2 12 4 20 15 13 18 14 18 8 -3 -8 -33 14 -28 32 7 9 17 18 30 21 30 2
0 -2 -13 -11 -30 -9 -17 -14 -30 -13 -31 49 -13 78 2 78 42 0 22 6 32 25 39
14 5 25 14 25 20 0 5 19 15 43 22 l43 11 -10 34 c-13 40 -31 42 -71 7z"/>
<path d="M450 400 c0 -5 5 -10 11 -10 5 0 7 5 4 10 -3 6 -8 10 -11 10 -2 0 -4
-4 -4 -10z"/>
<path d="M2011 264 c0 -11 3 -14 6 -6 3 7 2 16 -1 19 -3 4 -6 -2 -5 -13z"/>
<path d="M1540 167 c0 -1 -4 -18 -10 -37 -9 -34 -9 -34 8 -15 9 11 26 28 37
38 19 17 19 17 -8 17 -15 0 -27 -1 -27 -3z"/>
<path d="M1750 143 c0 -6 6 -14 13 -16 6 -3 -2 -6 -20 -6 -36 -1 -57 -21 -21
-21 21 0 20 -2 -10 -20 -18 -11 -36 -19 -40 -18 -4 1 -24 -4 -46 -11 -23 -8
-58 -11 -87 -8 -27 3 -49 2 -49 -3 0 -4 -3 -15 -6 -24 -5 -14 11 -16 139 -16
83 0 156 5 170 11 l23 11 -17 50 c-16 47 -49 95 -49 71z"/>
</g>
</svg>
